<svg preserveAspectRatio="none" width="100%" height="100%" overflow="visible" style="display: block;" viewBox="0 0 31.1667 25.5004" fill="none" xmlns="http://www.w3.org/2000/svg">
<path id="Vector (Stroke)" d="M28.3333 13.7751C28.3331 13.3009 28.0289 12.6196 26.9499 11.8424C26.1097 11.2374 24.925 10.6785 23.4552 10.2238C23.3389 10.3721 23.2135 10.5086 23.0831 10.6319C22.5511 11.135 21.8569 11.5231 21.1172 11.8189C19.6299 12.4136 17.6728 12.75 15.5833 12.75C13.4938 12.75 11.5367 12.4136 10.0495 11.8189C9.30975 11.5231 8.61558 11.135 8.08358 10.6319C7.95142 10.5069 7.82355 10.369 7.70589 10.2183C6.24475 10.6723 5.06561 11.2314 4.22648 11.8355C3.13978 12.6179 2.83356 13.3032 2.83333 13.7751C2.83333 14.1338 2.99674 14.5939 3.53752 15.1406C4.08454 15.6937 4.94735 16.2564 6.12459 16.7593C8.47397 17.7627 11.8176 18.4167 15.5833 18.4167C19.3491 18.4167 22.6927 17.7627 25.0421 16.7593C26.2193 16.2564 27.0821 15.6937 27.6291 15.1406C28.1699 14.5939 28.3333 14.1338 28.3333 13.7751ZM15.5972 14.1667C16.3796 14.1667 17.0138 14.8009 17.0138 15.5833C17.0138 16.3657 16.3796 17 15.5972 17H15.5833C14.8009 17 14.1667 16.3657 14.1667 15.5833C14.1667 14.8009 14.8009 14.1667 15.5833 14.1667H15.5972ZM8.51383 12.75C9.29624 12.75 9.9305 13.3843 9.9305 14.1667C9.9305 14.9491 9.29624 15.5833 8.51383 15.5833H8.5C7.7176 15.5833 7.08333 14.9491 7.08333 14.1667C7.08333 13.3843 7.7176 12.75 8.5 12.75H8.51383ZM22.6805 12.75C23.4629 12.75 24.0972 13.3843 24.0972 14.1667C24.0972 14.9491 23.4629 15.5833 22.6805 15.5833H22.6667C21.8843 15.5833 21.25 14.9491 21.25 14.1667C21.25 13.3843 21.8843 12.75 22.6667 12.75H22.6805ZM15.5833 2.83333C12.5904 2.83333 10.1529 5.12909 9.93327 8.02409C9.94942 8.06954 9.96447 8.11595 9.97616 8.16382C10.0081 8.29499 10.0185 8.4268 10.0135 8.55534C10.0191 8.56082 10.024 8.5675 10.0301 8.57332C10.2151 8.74824 10.5587 8.97214 11.1009 9.18896C12.1774 9.61943 13.7618 9.91667 15.5833 9.91667C17.4049 9.91667 18.9893 9.61943 20.0658 9.18896C20.6079 8.97214 20.9516 8.74824 21.1366 8.57332C21.1538 8.55704 21.1665 8.53993 21.1794 8.52629C21.1785 8.41134 21.191 8.2944 21.2196 8.17765C21.2251 8.15521 21.2324 8.13317 21.2389 8.11125C21.0621 5.17532 18.6062 2.83333 15.5833 2.83333ZM31.1667 13.7751C31.1667 15.0931 30.5369 16.2295 29.6435 17.1328C28.7562 18.0299 27.5426 18.7719 26.1558 19.3643C24.9522 19.8784 23.568 20.2999 22.0566 20.6136L23.8454 23.2975C24.2794 23.9485 24.1035 24.828 23.4525 25.262C22.8015 25.696 21.922 25.5201 21.488 24.8691L18.9631 21.0812C17.8721 21.1902 16.7407 21.25 15.5833 21.25C14.2167 21.25 12.886 21.1683 11.6156 21.0176L9.76725 24.717C9.41735 25.4168 8.56618 25.7005 7.86637 25.3506C7.16657 25.0007 6.88285 24.1495 7.23275 23.4497L8.69507 20.5237C7.34489 20.2208 6.10342 19.831 5.0109 19.3643C3.62409 18.7719 2.41049 18.0299 1.52319 17.1328C0.629761 16.2295 0 15.0931 0 13.7751C0.000221889 11.9949 1.13963 10.5664 2.57048 9.53621C3.77992 8.66545 5.35481 7.95716 7.14697 7.42643C7.65588 3.23536 11.2463 0 15.5833 0C19.9227 0 23.5139 3.23897 24.0197 7.43335C25.8156 7.96369 27.3936 8.67126 28.6045 9.54313C30.032 10.571 31.1664 11.9958 31.1667 13.7751Z" fill="url(#paint0_linear_0_88)"/>
<defs>
<linearGradient id="paint0_linear_0_88" x1="15.5833" y1="0" x2="15.5833" y2="25.5004" gradientUnits="userSpaceOnUse">
<stop stop-color="#8D9BFC"/>
<stop offset="1" stop-color="#495BDC"/>
</linearGradient>
</defs>
</svg>
